<svg width="128" height="128" viewBox="0 0 128 128" fill="none" xmlns="http://www.w3.org/2000/svg">
<path d="M64.3 16L13 34.6667L67 56L121 34.6667L64.3 16Z" fill="#5AA7D2"/>
<path d="M67 120V56L13 34.6667V106.667L67 120Z" fill="#5AA7D2"/>
<path d="M67 56V120L123 106.667L121 34.6667L67 56Z" fill="#5AA7D2"/>
<path d="M67 56V120M67 56L13 34.6667M67 56L121 34.6667M67 120L13 106.667V34.6667M67 120L123 106.667L121 34.6667M13 34.6667L64.3 16L121 34.6667" stroke="white" stroke-width="2"/>
<path d="M83.8697 78.4134L81.0598 86.2063L79.5075 86.5504L76.4011 80.0691L78.0315 79.7077L80.2147 84.3348L82.2296 78.777L83.8697 78.4134ZM84.4665 79.9404L85.9798 79.6049L86.0996 85.089L84.5863 85.4244L84.4665 79.9404ZM85.3195 78.9831C85.0592 79.0408 84.8278 79.0135 84.6254 78.9014C84.428 78.7812 84.3048 78.6105 84.2558 78.3892C84.1981 78.1289 84.2416 77.8939 84.3863 77.6843C84.5361 77.4667 84.7607 77.3247 85.0601 77.2583C85.3269 77.1992 85.5583 77.2264 85.7542 77.34C85.9552 77.4457 86.0795 77.6059 86.1271 77.8207C86.1891 78.1006 86.1453 78.3493 85.9955 78.5669C85.8442 78.778 85.6189 78.9167 85.3195 78.9831ZM92.5461 80.4948C92.5994 80.7356 92.6293 81.009 92.6357 81.3148L88.6133 82.2066C88.8241 82.911 89.3558 83.1687 90.2085 82.9796C90.4753 82.9205 90.7198 82.8219 90.9418 82.6839C91.1704 82.5445 91.3585 82.3764 91.5061 82.1798L92.3636 83.0447C92.1227 83.344 91.8265 83.594 91.4749 83.7948C91.1234 83.9957 90.7394 84.1423 90.3228 84.2346C89.7826 84.3544 89.2865 84.3654 88.8346 84.2675C88.3878 84.1617 88.0141 83.9544 87.7134 83.6454C87.4193 83.3351 87.2203 82.9456 87.1164 82.477C86.988 81.8977 87.0027 81.3482 87.1606 80.8283C87.3236 80.3005 87.6105 79.8545 88.0214 79.4903C88.4309 79.1195 88.935 78.8678 89.5338 78.7351C90.0415 78.6225 90.5017 78.6195 90.9145 78.726C91.3339 78.831 91.6834 79.0369 91.9631 79.3437C92.2493 79.649 92.4436 80.0327 92.5461 80.4948ZM89.7187 79.8925C89.3607 79.9718 89.0797 80.1366 88.8756 80.3866C88.6702 80.6302 88.5529 80.9328 88.5238 81.2943L91.1305 80.7164C91.0554 80.378 90.8896 80.1382 90.633 79.9971C90.3814 79.848 90.0766 79.8131 89.7187 79.8925ZM101.932 76.0683L100.197 81.9636L98.6935 82.297L97.3631 79.1606L96.282 82.8316L94.7981 83.1606L92.7061 78.1137L94.0925 77.8064L95.452 81.2128L96.6406 77.2414L97.9488 76.9514L99.3279 80.3536L100.497 76.3865L101.932 76.0683ZM107.629 77.151C107.682 77.3918 107.712 77.6651 107.719 77.971L103.696 78.8627C103.907 79.5671 104.439 79.8248 105.291 79.6358C105.558 79.5767 105.803 79.4781 106.025 79.3401C106.253 79.2006 106.442 79.0326 106.589 78.836L107.447 79.7009C107.206 80.0001 106.909 80.2502 106.558 80.451C106.206 80.6519 105.822 80.7985 105.406 80.8908C104.866 81.0106 104.37 81.0215 103.918 80.9237C103.471 80.8179 103.097 80.6105 102.796 80.3016C102.502 79.9913 102.303 79.6018 102.199 79.1331C102.071 78.5539 102.086 78.0043 102.244 77.4845C102.407 76.9567 102.693 76.5107 103.104 76.1465C103.514 75.7757 104.018 75.524 104.617 75.3912C105.124 75.2787 105.585 75.2757 105.998 75.3822C106.417 75.4872 106.766 75.6931 107.046 75.9999C107.332 76.3051 107.527 76.6889 107.629 77.151ZM104.802 76.5486C104.444 76.628 104.163 76.7927 103.959 77.0428C103.753 77.2864 103.636 77.589 103.607 77.9505L106.213 77.3726C106.138 77.0342 105.973 76.7944 105.716 76.6532C105.464 76.5041 105.16 76.4693 104.802 76.5486ZM110.063 74.9212C110.236 74.6234 110.47 74.3838 110.765 74.2024C111.065 74.0196 111.434 73.8799 111.87 73.7832L111.908 75.2497C111.723 75.2771 111.605 75.2966 111.552 75.3081C111.09 75.4105 110.745 75.6067 110.515 75.8965C110.292 76.1849 110.186 76.5808 110.195 77.0841L110.25 79.735L108.727 80.0726L108.607 74.5886L110.052 74.2682L110.063 74.9212Z" fill="white"/>
<path d="M23.8972 72.8388L21.7103 72.354L22.2596 71.1237L28.215 72.444L27.6657 73.6742L25.4886 73.1916L23.1462 78.4902L21.5646 78.1396L23.8972 72.8388ZM31.3687 74.7205C31.9545 74.8504 32.3852 75.1097 32.6609 75.4986C32.9366 75.8875 33.011 76.3684 32.884 76.9411C32.8378 77.1494 32.7689 77.3526 32.6771 77.5508L31.4463 80.3303L29.9233 79.9926L31.1129 77.3064C31.1635 77.2016 31.2032 77.084 31.2321 76.9539C31.2927 76.6805 31.264 76.4556 31.146 76.2793C31.0281 76.1029 30.8194 75.9815 30.52 75.9151C30.1295 75.8286 29.7788 75.8703 29.468 76.0404C29.1651 76.2054 28.9183 76.5024 28.7276 76.9313L27.6095 79.4797L26.0865 79.142L29.1374 72.2182L30.6604 72.5559L29.6247 74.9177C30.156 74.6463 30.7373 74.5805 31.3687 74.7205ZM36.2252 76.5347C36.5078 76.3378 36.8209 76.2194 37.1643 76.1795C37.5143 76.141 37.9073 76.1701 38.3434 76.2668L37.7584 77.612C37.579 77.5586 37.4633 77.5261 37.4112 77.5146C36.9491 77.4121 36.5529 77.4438 36.2225 77.6095C35.8986 77.7767 35.6345 78.0903 35.4301 78.5503L34.3597 80.9762L32.8367 80.6385L35.0457 75.6176L36.4907 75.938L36.2252 76.5347ZM43.3258 79.7989C43.2724 80.0397 43.1839 80.3 43.0604 80.58L39.0381 79.6882C38.9314 80.4157 39.3044 80.874 40.1571 81.063C40.4239 81.1222 40.6871 81.1361 40.9467 81.1049C41.2128 81.0751 41.4543 81.0023 41.6711 80.8865L42.0828 82.0328C41.738 82.2022 41.3638 82.3036 40.9603 82.3371C40.5569 82.3705 40.1468 82.3411 39.7303 82.2487C39.1901 82.129 38.7359 81.9293 38.3677 81.6496C38.0074 81.3649 37.7563 81.019 37.6144 80.612C37.479 80.2064 37.4632 79.7693 37.5671 79.3007C37.6955 78.7214 37.9411 78.2296 38.3039 77.8252C38.6747 77.4157 39.1232 77.1327 39.6495 76.9763C40.1773 76.8133 40.7406 76.7982 41.3394 76.931C41.8471 77.0435 42.2655 77.2353 42.5946 77.5063C42.9303 77.7787 43.1601 78.113 43.2839 78.5092C43.4143 78.9069 43.4282 79.3368 43.3258 79.7989ZM41.0178 78.0581C40.6599 77.9787 40.3356 78.0092 40.045 78.1497C39.7558 78.2836 39.5216 78.5082 39.3424 78.8236L41.9491 79.4015C42.0242 79.063 41.9752 78.7756 41.8023 78.5393C41.6373 78.2978 41.3758 78.1374 41.0178 78.0581ZM49.4562 81.158C49.4028 81.3988 49.3144 81.6591 49.1909 81.939L45.1685 81.0473C45.0619 81.7748 45.4349 82.2331 46.2875 82.4221C46.5544 82.4812 46.8176 82.4952 47.0772 82.464C47.3432 82.4342 47.5847 82.3614 47.8016 82.2456L48.2133 83.3919C47.8684 83.5613 47.4943 83.6627 47.0908 83.6961C46.6873 83.7296 46.2773 83.7002 45.8607 83.6078C45.3205 83.4881 44.8663 83.2884 44.4981 83.0087C44.1379 82.724 43.8868 82.3781 43.7449 81.9711C43.6094 81.5655 43.5937 81.1284 43.6976 80.6597C43.826 80.0805 44.0716 79.5886 44.4344 79.1842C44.8051 78.7748 45.2537 78.4918 45.78 78.3354C46.3078 78.1724 46.8711 78.1573 47.4699 78.2901C47.9775 78.4026 48.396 78.5944 48.7251 78.8654C49.0608 79.1378 49.2905 79.4721 49.4144 79.8683C49.5447 80.266 49.5587 80.6958 49.4562 81.158ZM47.1483 79.4172C46.7903 79.3378 46.466 79.3683 46.1754 79.5088C45.8862 79.6427 45.6521 79.8673 45.4729 80.1827L48.0796 80.7606C48.1546 80.4221 48.1057 80.1347 47.9327 79.8984C47.7677 79.6569 47.5063 79.4965 47.1483 79.4172Z" fill="white"/>
</svg>
